<?xml version="1.0" encoding="utf-8"?>
<!-- Generator: Adobe Illustrator 24.1.1, SVG Export Plug-In . SVG Version: 6.00 Build 0)  -->
<svg version="1.1" id="apps_1_" xmlns="http://www.w3.org/2000/svg" xmlns:xlink="http://www.w3.org/1999/xlink" x="0px" y="0px"
	 viewBox="0 0 2964 696" style="enable-background:new 0 0 2964 696;" xml:space="preserve">
<style type="text/css">
	.st0{fill:#FFFFFF;}
	.st1{fill:#00A9A2;}
	.st2{fill:#333333;}
</style>
<g id="HULK__x2B__apps__x2B___x2F___x2B__Rectangle_3__x2B___x3E___x2B__frame_xA0_Image_1_">
	<g>
		<rect x="17.5" y="17.5" class="st0" width="2929" height="661"/>
		<path class="st1" d="M2929,35v626H35V35H2929 M2964,0H0v696h2964V0L2964,0z"/>
	</g>
	<polygon class="st1" points="340.1,696 0,696 0,0 340.1,0 340.1,331.6 261.1,331.6 261.1,206 220.4,206 220.4,500.3 261.1,500.3 
		261.1,372.2 340.1,372.2 	"/>
	<polygon class="st2" points="340.1,331.6 340.1,372.2 419.3,372.2 419.3,500.3 459.9,500.3 459.9,206 419.3,206 419.3,331.6 	"/>
	<g>
		<path class="st2" d="M592,385.5c0,10.7,2,20.7,6,30.1s9.6,17.7,16.6,24.7s15.3,12.6,24.7,16.6s19.5,6,30.1,6s20.7-2,30.1-6
			c9.4-4,17.7-9.6,24.7-16.6s12.6-15.3,16.6-24.7c4-9.4,6-19.5,6-30.1v-179h40.6v179c0,10.9-1.4,21.4-4.2,31.5
			c-2.8,10-6.8,19.4-11.9,28.2c-5.1,8.7-11.3,16.7-18.5,23.9c-7.2,7.2-15.2,13.3-24,18.5s-18.1,9.1-28.2,11.9
			c-10,2.8-20.5,4.2-31.4,4.2c-10.8,0-21.2-1.4-31.2-4.2c-10-2.8-19.4-6.8-28.2-11.9c-8.7-5.1-16.7-11.3-24-18.5
			c-7.2-7.2-13.4-15.1-18.5-23.9c-5.1-8.7-9.1-18.2-11.9-28.3c-2.8-10.1-4.2-20.6-4.2-31.4v-179H592V385.5z"/>
		<path class="st2" d="M876.3,500.3V206.5h40.6v253.2h126.9v40.6L876.3,500.3L876.3,500.3z"/>
		<path class="st2" d="M1155.1,500.3h-40.6V206.5h40.6V500.3z M1189.1,336.5l82.2-111.5c4-6.1,9-10.8,15.1-13.8
			c6.1-3.1,13.1-4.6,21-4.6h27.9l-100.9,136.9c-1.5,1.9-2.9,3.3-4.1,4.2c-1.2,0.9-2,1.4-2.3,1.5c0.3,0.3,1,0.8,2.3,1.6
			c1.2,0.8,2.6,2.2,4.1,4.1L1342,500.3h-27.9c-7.9,0-14.9-1.5-21-4.6s-11.1-7.7-15.1-13.8L1189,362c-1.8-2.3-3.5-4.3-5.2-5.8
			c-1.7-1.6-3.3-2.8-4.7-3.8c-1.4-1-2.6-1.7-3.6-2.2s-1.5-0.8-1.6-0.9c0.1,0,0.7-0.2,1.6-0.6c1-0.4,2.2-1.1,3.6-2
			c1.4-1,3-2.3,4.7-3.9C1185.6,341,1187.3,338.9,1189.1,336.5z"/>
	</g>
	<polygon class="st2" points="1362,500.3 1397.1,500.3 1483.2,205.9 1447.1,205.9 	"/>
	<path class="st2" d="M2583.1,514.1l6-8.3l4.5-6.1l14.3-19.4l14.3-19.5l14.6-19.9l13.3-18.1l16.5-22.4l9.8-13.4l5.7-7.7l1.4-1.9
		c0,0,1.6-2.1,1.9-2.3c0,0,1.7-2,2.9-2.7c0,0,1.5-1.1,1.9-1.3c0,0-1.6-1.3-2.1-1.5c0,0-1.9-1.3-3.5-3.3c0,0-1.6-2-2.2-2.9
		l-106.1-143.6h0.6h1.3h18.4h8.5c0,0,5.5,0.1,9.2,0.9c0,0,3.5,0.6,6.6,1.8c0,0,2.5,0.9,3.5,1.5c0,0,2.9,1.5,3.4,1.8
		c0,0,2.7,1.7,3.7,2.6c0,0,3.1,2.6,3.6,3.3c0,0,3.9,4.1,5.7,7.4c0,0,7.4,10,8.5,11.5l10.3,14l10.3,13.9l9.3,12.5l9.4,12.7l8.2,11
		l10.6,14.4l12.4,16.8l9.4,12.8c0,0,4.6,6.2,9.7,9.4c0,0,2.5,1.7,5.4,3.1c0,0-3.9,1.2-7.4,4.3c0,0-4,3.2-6.6,6.9l-6.3,8.6l-5.9,8
		l-5.6,7.5l-6.7,9.1l-5.9,8l-6.8,9.2l-7.3,9.9l-7.3,9.9l-7.2,9.8l-7.9,10.7l-7.4,10.1l-7.7,10.5l-3.3,4.6c0,0-3.1,4.1-5.2,5.7
		c0,0-3.7,3.3-7.3,5.1c0,0-4.6,2.5-10.1,3.7c0,0-3.7,0.8-6,1c0,0-5.3,0.4-9.2,0.3L2583.1,514.1z"/>
	<g>
		<path class="st2" d="M1717.6,450.4c4.5,0,7.8,1,9.7,3c1.9,2,2.9,5.5,2.9,10.6s-1,8.6-2.9,10.6s-5.2,3-9.7,3h-12.8
			c-4.1,0-8.1-0.5-11.8-1.5c-3.7-1-7.1-2.6-10.1-4.7s-5.6-4.8-7.8-8c-2.2-3.2-3.8-7-4.7-11.4c-10.5,9.2-22.2,16.5-34.8,21.9
			c-12.7,5.4-26.4,8.1-41.2,8.1c-10,0-19.2-1.3-27.6-3.9s-15.7-6.4-21.8-11.4c-6.1-5-10.9-11.1-14.3-18.3
			c-3.4-7.2-5.1-15.5-5.1-24.8c0-11.2,2.2-20.8,6.5-28.6c4.3-7.9,10.2-14.2,17.6-19.1s16-8.4,25.8-10.7c9.8-2.3,20.2-3.4,31.1-3.4
			c10.8,0,21.3,0.9,31.4,2.6s20,4.3,29.4,7.6v-17c0-12.9-3.1-22.5-9.3-28.5c-6.2-6.1-16.9-9.1-31.9-9.1c-10.8,0-21.7,1.4-32.5,4.3
			c-10.9,2.9-20.5,7.3-28.9,13.3c-3.1,2.3-6.2,3.1-9.4,2.4c-3.2-0.7-6.3-3.1-9.2-7.2c-2.9-4.1-4.1-7.8-3.5-11.1
			c0.6-3.3,2.4-6,5.5-8.3c5.2-3.9,10.9-7.2,17.2-10.1c6.3-2.9,12.8-5.2,19.5-7s13.6-3.1,20.6-4s13.9-1.3,20.7-1.3
			c23.9,0,41.7,5.6,53.6,16.8c11.8,11.2,17.7,27.8,17.7,49.8v79.7c0,10.5,4.4,15.8,13.2,15.8L1717.6,450.4L1717.6,450.4z
			 M1667.4,399c-9.2-3.1-19-5.3-29.4-6.8s-20.8-2.2-31.2-2.2c-7.2,0-13.8,0.6-19.9,1.8c-6.1,1.2-11.3,3.1-15.7,5.7
			c-4.4,2.6-7.8,6-10.3,10.2s-3.7,9.3-3.7,15.3c0,9.7,3.4,17.3,10.1,22.7c6.7,5.4,16.2,8.1,28.3,8.1c14.3,0,27.4-3,39.2-8.9
			c11.9-5.9,22.8-14,32.6-24.1V399z"/>
		<path class="st2" d="M1807.3,319.9h-16.4c-4.5,0-7.8-1-9.7-3c-1.9-2-2.9-5.5-2.9-10.6s1-8.6,2.9-10.6s5.2-3,9.7-3h31.8
			c4.5,0,7.8,1,9.7,3c1.9,2,2.9,5.5,2.9,10.6v16c8.3-10.8,17.9-19.2,28.9-25.1s23.2-8.9,36.5-8.9c12.4,0,23.9,2.1,34.4,6.3
			c10.5,4.2,19.7,10.2,27.3,18.1c7.7,7.9,13.7,17.5,18.1,28.8s6.6,24.2,6.6,38.6s-2.2,27.3-6.6,38.6c-4.4,11.3-10.4,21-18.1,28.8
			c-7.7,7.9-16.8,13.9-27.3,18.1s-22,6.3-34.4,6.3c-13.3,0-25.3-2.7-35.7-8.1c-10.5-5.4-19.7-13.1-27.7-23.1V529h44.4
			c4.5,0,7.8,1,9.7,3c1.9,2,2.9,5.5,2.9,10.6s-1,8.6-2.9,10.6s-5.2,3-9.7,3h-96.9c-4.5,0-7.8-1-9.7-3c-1.9-2-2.9-5.5-2.9-10.6
			s1-8.6,2.9-10.6s5.2-3,9.7-3h22.4L1807.3,319.9L1807.3,319.9z M1837.3,380.2c0,9.9,1.5,18.7,4.6,26.4c3.1,7.7,7.3,14.2,12.8,19.5
			s12,9.3,19.5,12.1c7.5,2.8,15.7,4.2,24.5,4.2c9.1,0,17.1-1.5,24.2-4.6s13-7.4,17.8-12.9s8.5-12.1,11-19.7s3.8-15.9,3.8-25
			s-1.3-17.4-3.8-25s-6.2-14.2-11-19.7s-10.7-9.8-17.8-12.9c-7.1-3.1-15.1-4.6-24.2-4.6c-8.8,0-17,1.4-24.5,4.2
			c-7.5,2.8-14,6.8-19.5,12.1c-5.5,5.3-9.7,11.8-12.8,19.5C1838.8,361.5,1837.3,370.3,1837.3,380.2z"/>
		<path class="st2" d="M2075.6,319.9h-16.4c-4.5,0-7.8-1-9.7-3c-1.9-2-2.9-5.5-2.9-10.6s1-8.6,2.9-10.6c1.9-2,5.2-3,9.7-3h31.8
			c4.5,0,7.8,1,9.7,3s2.9,5.5,2.9,10.6v16c8.3-10.8,17.9-19.2,28.9-25.1s23.2-8.9,36.5-8.9c12.4,0,23.9,2.1,34.4,6.3
			c10.5,4.2,19.7,10.2,27.3,18.1c7.7,7.9,13.7,17.5,18.1,28.8c4.4,11.3,6.6,24.2,6.6,38.6s-2.2,27.3-6.6,38.6
			c-4.4,11.3-10.4,21-18.1,28.8c-7.7,7.9-16.8,13.9-27.3,18.1s-22,6.3-34.4,6.3c-13.3,0-25.3-2.7-35.7-8.1
			c-10.5-5.4-19.7-13.1-27.7-23.1V529h44.4c4.5,0,7.8,1,9.7,3s2.9,5.5,2.9,10.6s-1,8.6-2.9,10.6s-5.2,3-9.7,3h-96.9
			c-4.5,0-7.8-1-9.7-3c-1.9-2-2.9-5.5-2.9-10.6s1-8.6,2.9-10.6s5.2-3,9.7-3h22.4V319.9H2075.6z M2105.7,380.2
			c0,9.9,1.5,18.7,4.6,26.4c3.1,7.7,7.3,14.2,12.8,19.5s12,9.3,19.5,12.1c7.5,2.8,15.7,4.2,24.5,4.2c9.1,0,17.1-1.5,24.2-4.6
			c7.1-3.1,13-7.4,17.8-12.9s8.5-12.1,11-19.7s3.8-15.9,3.8-25s-1.3-17.4-3.8-25s-6.2-14.2-11-19.7s-10.7-9.8-17.8-12.9
			s-15.1-4.6-24.2-4.6c-8.8,0-17,1.4-24.5,4.2c-7.5,2.8-14,6.8-19.5,12.1c-5.5,5.3-9.7,11.8-12.8,19.5
			C2107.2,361.5,2105.7,370.3,2105.7,380.2z"/>
		<path class="st2" d="M2369.5,469.1c0,4.7-1.1,8-3.3,10s-6.1,3-11.7,3s-9.5-1-11.7-3s-3.3-5.3-3.3-10v-48c0-4.7,1.1-8,3.3-10
			s6.1-3,11.7-3c2.9,0,5.2,0.7,6.8,2s2.9,3.4,4,6.2c4.9,12.9,13,22.3,24.2,28.1c11.2,5.8,26.1,8.7,44.6,8.7c16,0,28-2.8,36-8.5
			s12-13.1,12-22.3c0-4.8-1.5-8.6-4.6-11.5s-7.2-5.2-12.4-6.9c-5.9-2-12.7-3.5-20.4-4.4s-15.9-1.9-24.4-2.8s-17.1-2.1-25.5-3.6
			c-8.5-1.5-16.3-3.6-23.5-6.4c-4.5-1.7-8.7-3.9-12.4-6.4s-7-5.5-9.7-9s-4.9-7.5-6.4-12s-2.3-9.7-2.3-15.6c0-8.9,1.8-16.8,5.4-23.7
			c3.6-6.9,8.6-12.6,14.9-17.3c6.3-4.7,13.8-8.2,22.4-10.6c8.6-2.4,18-3.6,28.1-3.6c13.3,0,25.3,2,35.9,5.9
			c10.6,3.9,19.7,9.3,27.3,16.1v-9c0-4.7,1.1-8,3.3-10s6.1-3,11.7-3s9.5,1,11.7,3s3.3,5.3,3.3,10v38c0,4.7-1.1,8-3.3,10
			s-6.1,3-11.7,3c-4.5,0-7.7-1.7-9.6-5.2c-3.1-5.7-6.8-10.5-11.1-14.4s-9.3-6.9-15-9.2c-5.7-2.3-11.9-3.9-18.7-4.8
			s-14.1-1.4-21.8-1.4c-12.9,0-23.1,2.3-30.3,6.8c-7.3,4.5-10.9,11-10.9,19.4c0,4.4,1.4,7.9,4.3,10.6c2.9,2.7,6.8,4.8,11.9,6.4
			c5.6,1.9,12.1,3.2,19.6,4.1s15.3,1.7,23.6,2.6s16.6,1.9,25,3.2c8.4,1.3,16.2,3.2,23.4,5.9c4.9,1.9,9.5,4.1,13.6,6.7
			s7.7,5.7,10.7,9.4c3,3.7,5.3,7.9,7,12.8s2.5,10.5,2.5,16.9c0,8.9-1.7,17.1-5.1,24.4c-3.4,7.3-8.4,13.6-15,18.9
			s-14.7,9.3-24.4,12.2c-9.7,2.9-20.7,4.3-33.1,4.3c-14.5,0-27.3-2-38.1-6c-10.9-4-20.4-10.1-28.5-18.2V469.1z"/>
	</g>
</g>
</svg>
